<svg xmlns="http://www.w3.org/2000/svg" xmlns:xlink="http://www.w3.org/1999/xlink" width="1260.266" height="188.607" viewBox="0 0 1260.266 188.607">
  <defs>
    <linearGradient id="linear-gradient" x1="0.5" y1="0.958" x2="0.5" y2="0.071" gradientUnits="objectBoundingBox">
      <stop offset="0" stop-color="#ff460e"/>
      <stop offset="1" stop-color="#ff7a14"/>
    </linearGradient>
  </defs>
  <g id="Group_8" data-name="Group 8" transform="translate(0 0)">
    <path id="Path_4" data-name="Path 4" d="M346.517,384.4H317.831v8.4h3.4v23.918a10.3,10.3,0,0,1-10.351,10.354H254.007V363.331h60.347c.844.079,1.529.079,2.239.079a4.438,4.438,0,0,1,1.237.079v18.519h28.686V365.491h4.032a29.382,29.382,0,0,0-9.643-18.675,28.07,28.07,0,0,0-19.465-7.4H225.98v66.035h-7.007V420.2h7.007v28.556h95.46a28.234,28.234,0,0,0,14.751-4H254.007v-2.4h85.661a29.572,29.572,0,0,0,8.086-10.037,28.031,28.031,0,0,0,3.029-12.879V389.647h-4.267V384.4Zm-114.585,16.28h-1.922V363.331h1.922v37.352Zm263.915,9.482-46.072-70.54v-.368h-18.6v.368l-21,32.109H386.873l5.716,7.191h12.879l-7.559,11.566h-4.4L364.271,434.4H369.2l-11.486,17.675h28.4l15.277-20.521h-7.322l27.157-40.985,8.562-.159,10.64-16.28,23.154,36.033Zm-28.108,6.4h32.347l23.154,35.509H490.524l-16.514-25.79H462.418v-8.8h5.954l-.634-.923Zm169.638-70.384h-9.114v-2.449h5.558a28.7,28.7,0,0,0-15.2-4.108H560.356a28.688,28.688,0,0,0-19.994,7.639,30.656,30.656,0,0,0-9.957,19.15h4.111v17.069h3.16v2.449h-3.16v5.32h-4.32v30.716a29.724,29.724,0,0,0,3.08,13.276,30.371,30.371,0,0,0,8.4,10.351h12.2v2.477h-8.641a29.379,29.379,0,0,0,15.122,4.083h58.267a29.03,29.03,0,0,0,20.07-7.639,30.333,30.333,0,0,0,9.957-19.15h-4.162V400.525h4.32V369.812a28.188,28.188,0,0,0-3.109-13.276,29.525,29.525,0,0,0-8.324-10.354Zm-95.46,73.784h-1.922V362.858h1.922v57.109Zm76.468-22.76h-3.531v8.641h3.372v2.474h-3.372v19.125h-1.237a19.926,19.926,0,0,1-2.24.079H581.349v2.316H571.233a10.135,10.135,0,0,1-7.48-3.08,10.389,10.389,0,0,1-3.162-7.559V394.573h3.556v-8.641h-1.869v-2.449h1.869v-19.15a10.435,10.435,0,0,0,1.24-.079h32.239v-2.319h10.116a10.529,10.529,0,0,1,10.643,10.643v24.629Zm183.992-57.635H773.428v51h-81.55v-51H662.928v68.04h-7.166v15.147h7.166v29.4h28.949V424.363h-7.35V410.641h94.7v-2.633h1.634v16.356h-7.429v27.791h28.949V362.566h9.114V350.214h-9.114V339.571Zm-133.26,63.114H667.09V345.5h2.027v57.185Zm129.1,0h-1.922V345.5h1.922v57.185Zm158.364,7.48-46.072-70.54v-.368h-18.6v.368l-20.993,32.109H847.606l5.716,7.191H866.2l-7.559,11.566h-4.4L825,434.4h4.926l-11.484,17.675h28.394l15.277-20.521H854.8l27.157-40.985,8.562-.159,10.643-16.28,23.154,36.033Zm-28.105,6.4H960.82l23.154,35.509H951.259l-16.517-25.79H923.151v-8.8h5.954l-.631-.923Zm62.666-50.231h10.192v24.841h-10.4v30.713a28.7,28.7,0,0,0,3.08,13.276,30.16,30.16,0,0,0,8.4,10.351h104.812l3.321,2.477H1005.967a28.643,28.643,0,0,0,15.122,4.083h96.3v-22.31h-85.427a10.142,10.142,0,0,1-7.48-3.083,10.388,10.388,0,0,1-3.163-7.559V394.494h9.117v-30.24a9.973,9.973,0,0,1,1.526-.159h85.427v-24.6h-96.3a28.568,28.568,0,0,0-19.994,7.641,30.493,30.493,0,0,0-9.955,19.2Zm133.206,30.951v42.146h4.555v8.4h-4.555v4.241h28.4v-14.83h3.474V415.329h-3.474v-8.4h27.842l36.667,45.15h34.954l-44.439-54.79Zm61.27-18.913H1161.3V361.856h-8.559V342.02h-28.4v23.788h9.244v19.36h-9.244v8.641h83.79l44.071-54.317h-34.954Z" transform="translate(8.06 -301.401)" fill="#fff" fill-rule="evenodd"/>
    <path id="Path_5" data-name="Path 5" d="M313.368,412.632V429.37h8.5v26.769h-8.5v11.2l-13.162,7.6h6.348l-34.36,19.838h-6.348L231.7,514.493l-55.857-32.25h-6.526l-30.532-17.624H150.03v-1.546h-6.464V436.3h6.464V405.7h-6.464V378.932h6.464v-5.895l.646-.374H143.6l46.367-26.769h7.078L231.7,325.886l25.461,14.7h8.174l30.526,17.627h-8.171l25.679,14.824v12.825h8.5v26.769Zm-21.755,10.62H284.66V405.624h6.954v-5.9h4.425v-.957h-4.425V385.6l-25.725-14.853h-5.971l-31.206-18.015L218.2,358.8h-7.078l-1.659.957h7.081L171.785,385.6v6.237h-4.422v.957h4.422v4.572h8.5v17.627h-8.5v34.215h-4.422v.957h4.422v4.618L231.7,489.372l59.914-34.589V443.234h4.425v-.957h-4.425Z" transform="translate(-138.784 -325.886)" fill-rule="evenodd" fill="url(#linear-gradient)"/>
  </g>
</svg>
