<svg xmlns="http://www.w3.org/2000/svg" width="24.011" height="16.883" viewBox="0 0 24.011 16.883">
  <g id="email" transform="translate(0 -76)">
    <path id="Path_7141" data-name="Path 7141" d="M8.948,92.134,1.632,84.79a.723.723,0,0,0-.76-.155,1.559,1.559,0,0,0-.647.732A1.928,1.928,0,0,0,0,86.3V98.957a1.928,1.928,0,0,0,.225.929,1.794,1.794,0,0,0,.436.591c.925.74,1.26-.33,8.287-7.358A.68.68,0,0,0,8.948,92.134Z" transform="translate(0 -8.185)" fill="#c5c9f7"/>
    <path id="Path_7142" data-name="Path 7142" d="M20.623,241.211a.7.7,0,0,0-.985,0l-2.6,2.518a.75.75,0,0,1-1.013,0l-2.5-2.518a.68.68,0,0,0-.985,0c-.76.76-6.922,6.936-7.738,7.752a1.793,1.793,0,0,0,.436.591.756.756,0,0,0,.225.141,2.077,2.077,0,0,0,1.224.45h19.79a2.077,2.077,0,0,0,1.224-.45,1.53,1.53,0,0,0,.661-.732C27.545,248.147,21.383,241.971,20.623,241.211Z" transform="translate(-4.575 -157.262)" fill="#e1e4fb"/>
    <path id="Path_7143" data-name="Path 7143" d="M325.635,85.225c-.277-.632-.921-1.063-1.407-.577l-7.316,7.344a.68.68,0,0,0,0,.985c.753.753,6.542,6.567,7.316,7.344.46.511,1.13.056,1.407-.577a1.928,1.928,0,0,0,.225-.928V86.154A1.928,1.928,0,0,0,325.635,85.225Z" transform="translate(-301.849 -8.044)" fill="#a8aff1"/>
    <path id="Path_7144" data-name="Path 7144" d="M266.827,249.176a1.53,1.53,0,0,1-.661.732,2.077,2.077,0,0,1-1.224.45H255V244.14a.763.763,0,0,0,.506-.2l2.6-2.518a.7.7,0,0,1,.985,0C259.849,242.184,266.011,248.36,266.827,249.176Z" transform="translate(-243.041 -157.476)" fill="#c5c9f7"/>
    <path id="Path_7145" data-name="Path 7145" d="M27.713,76.45a.014.014,0,0,0-.014-.014A2.061,2.061,0,0,0,26.474,76H6.684a2.061,2.061,0,0,0-1.224.436.014.014,0,0,0-.014.014,1.543,1.543,0,0,0-.647.732c9.778,9.792,7.794,7.808,10.242,10.27a2.106,2.106,0,0,0,2.983,0c2.42-2.434.446-.366,10.336-10.27A1.543,1.543,0,0,0,27.713,76.45Z" transform="translate(-4.574 0)" fill="#18a7fc"/>
    <path id="Path_7146" data-name="Path 7146" d="M266.827,77.182c-9.89,9.9-7.916,7.836-10.336,10.27a2.019,2.019,0,0,1-1.491.619V76h9.942a2.062,2.062,0,0,1,1.224.436.014.014,0,0,1,.014.014A1.543,1.543,0,0,1,266.827,77.182Z" transform="translate(-243.041 0)" fill="#1689fc"/>
  </g>
</svg>
