<svg id="india" xmlns="http://www.w3.org/2000/svg" width="39.369" height="26.454" viewBox="0 0 39.369 26.454">
  <path id="Path_7125" data-name="Path 7125" d="M0,304v5.165a3.645,3.645,0,0,0,3.779,3.653H35.272a3.645,3.645,0,0,0,3.779-3.653V304Z" transform="translate(0 -286.364)" fill="#359846"/>
  <path id="Path_7126" data-name="Path 7126" d="M35.272,80H3.779A3.645,3.645,0,0,0,0,83.653v5.165H39.051V83.653A3.645,3.645,0,0,0,35.272,80Z" transform="translate(0 -80)" fill="#ea8634"/>
  <rect id="Rectangle_2711" data-name="Rectangle 2711" width="39.369" height="8.838" transform="translate(0 8.838)" fill="#fcfbf0"/>
  <path id="Path_7127" data-name="Path 7127" d="M325.53,312.818a3.754,3.754,0,0,0,3.905-3.653V304H315.2Z" transform="translate(-290.384 -286.364)" fill="#21872f"/>
  <path id="Path_7128" data-name="Path 7128" d="M79.493,80H48l10.456,8.818H83.272V83.653A3.645,3.645,0,0,0,79.493,80Z" transform="translate(-44.221 -80)" fill="#e27423"/>
  <path id="Path_7129" data-name="Path 7129" d="M190.708,200.818h14.172V192H180Z" transform="translate(-165.828 -183.182)" fill="#f7f4e2"/>
  <path id="Path_7130" data-name="Path 7130" d="M79.493,80H48l29.162,8.818h6.11V83.653A3.645,3.645,0,0,0,79.493,80Z" transform="translate(-44.221 -80)" fill="#d86619"/>
  <path id="Path_7131" data-name="Path 7131" d="M420.824,193.764V192H414.4Z" transform="translate(-381.773 -183.182)" fill="#f2e9c2"/>
  <path id="Path_7132" data-name="Path 7132" d="M39.051,368.063a3.622,3.622,0,0,1-3.779,3.716H3.779A3.75,3.75,0,0,1,0,368" transform="translate(0 -345.325)" fill="#167a20"/>
  <path id="Path_7133" data-name="Path 7133" d="M201.568,197.6a3.968,3.968,0,1,0,3.968,3.968A3.952,3.952,0,0,0,201.568,197.6Zm3.275,4.409c0,.063.063.189.126.189-.063.189-.063.378-.126.567-.063-.063-.189,0-.252.063s0,.189.063.252c-.063.189-.189.315-.252.5a.156.156,0,0,0-.252.063.192.192,0,0,0,0,.252l-.189.189-1.386-1.575-.567-.441.063-.063.567.441,1.827.945-1.638-1.26-.63-.252c0-.063,0-.063.063-.126l.63.252,2.016.441-1.953-.63-.693-.126v-.126l.693.063,2.079-.126-2.079-.126-.693.063v-.126l.693-.126,1.953-.63-2.016.441-.63.252c0-.063,0-.063-.063-.126l.63-.252,1.764-1.134-1.827.945-.567.441-.063-.063.567-.441,1.386-1.575.189.189a.192.192,0,0,0,0,.252.379.379,0,0,0,.252.063,1.266,1.266,0,0,1,.252.5c-.063.063-.126.126-.063.252.063.063.126.126.252.063a1.839,1.839,0,0,1,.126.567c-.063,0-.126.126-.126.189s.126.189.189.126v.5C204.906,201.82,204.843,201.883,204.843,202.009Zm-5.48-3.086a.192.192,0,0,0,.252,0,.379.379,0,0,0,.063-.252,1.266,1.266,0,0,1,.5-.252c.063.063.126.126.252.063.063-.063.126-.126.063-.252a1.84,1.84,0,0,1,.567-.126c0,.063.126.126.189.126s.189-.126.126-.189h.5c0,.063.063.189.126.189s.189-.063.189-.126c.189.063.378.063.567.126-.063.063,0,.189.063.252s.189,0,.252-.063c.189.063.315.189.5.252a.156.156,0,0,0,.063.252.192.192,0,0,0,.252,0l.189.189-1.575,1.386-.441.567-.063-.063.441-.567.945-1.827-1.26,1.7-.252.63c-.063,0-.063,0-.126-.063l.252-.63.441-2.016-.63,1.953-.126.693h-.126l.063-.693-.063-2.079-.126,2.079.063.693h-.126l-.126-.693-.63-1.953.441,2.016.252.63c-.063,0-.063,0-.126.063l-.252-.63-1.134-1.764.945,1.827.441.567-.063.063-.441-.567-1.575-1.386C199.175,199.049,199.238,198.986,199.364,198.923Zm-.252,5.1-.189-.189a.192.192,0,0,0,0-.252.379.379,0,0,0-.252-.063,1.266,1.266,0,0,1-.252-.5c.063-.063.126-.126.063-.252-.063-.063-.126-.126-.252-.063a1.839,1.839,0,0,1-.126-.567c.063,0,.126-.126.126-.189s-.126-.189-.189-.126v-.5c.063,0,.189-.063.189-.126s-.063-.189-.126-.189c.063-.189.063-.378.126-.567.063.063.189,0,.252-.063s0-.189-.063-.252c.063-.189.189-.315.252-.5a.156.156,0,0,0,.252-.063c.063-.126.063-.189,0-.252l.189-.189,1.386,1.575.567.441-.063.063-.567-.441-1.827-.945,1.764,1.134.63.252c0,.063,0,.063-.063.126l-.63-.252-2.016-.441,1.953.63.693.126v.126l-.693-.063-2.142.126,2.079.126.693-.063v.126l-.693.126-1.953.63,2.016-.441.63-.252c0,.063,0,.063.063.126l-.63.252-1.764,1.134,1.827-.945.567-.441.063.063-.567.441Zm2.2,1.008c0-.063-.063-.189-.126-.189s-.189.063-.189.126c-.189-.063-.378-.063-.567-.126.063-.063,0-.189-.063-.252s-.189,0-.252.063c-.189-.063-.315-.189-.5-.252a.156.156,0,0,0-.063-.252.192.192,0,0,0-.252,0l-.189-.189,1.575-1.386.441-.567.063.063-.441.567-.945,1.827,1.134-1.764.252-.63c.063,0,.063,0,.126.063l-.252.63-.441,2.016.63-1.953.126-.693h.126l-.063.693.126,2.079.126-2.079-.063-.693h.126l.126.693.63,1.953-.441-2.016-.252-.63c.063,0,.063,0,.126-.063l.252.63,1.134,1.764-.945-1.827-.441-.567.063-.063.441.567,1.575,1.386-.189.189a.192.192,0,0,0-.252,0,.379.379,0,0,0-.063.252,1.266,1.266,0,0,1-.5.252c-.063-.063-.126-.126-.252-.063s-.126.126-.063.252a1.84,1.84,0,0,1-.567.126c0-.063-.126-.126-.189-.126s-.189.126-.126.189h-.5Z" transform="translate(-182.043 -188.341)" fill="#7d7dbc"/>
  <g id="Group_12681" data-name="Group 12681" transform="translate(16.502 9.259)">
    <path id="Path_7134" data-name="Path 7134" d="M259.2,257.6l.189.189v-.063Z" transform="translate(-255.295 -252.876)" fill="#6060b2"/>
    <path id="Path_7135" data-name="Path 7135" d="M212.623,197.6a4.146,4.146,0,0,0-3.023,1.386l.378.315.189-.189.189-.189a.192.192,0,0,0,.252,0,.379.379,0,0,0,.063-.252c.063-.063.189-.063.252-.126l.945,1.827.441.567-.063.063-.441-.567-1.575-1.386,1.323,1.512.189.126.378.315h0l1.071.882.063-.063.567.441,1.827.945c-.063.063-.063.189-.126.252a.156.156,0,0,0-.252.063.192.192,0,0,0,0,.252h0l.378.315a4.052,4.052,0,0,0,.945-2.582A3.938,3.938,0,0,0,212.623,197.6Zm-.315,3.338-.252-.63-1.134-1.7a.327.327,0,0,1,.252-.126c.063.063.126.126.252.063.063-.063.126-.126.063-.252.063,0,.189-.063.252-.063l.441,2.016.252.63C212.371,200.938,212.371,200.938,212.308,200.938Zm.378-.063.063-.693-.126-2.079-.126,2.079.063.693h-.126l-.126-.693-.63-1.953c.063,0,.189-.063.252-.063,0,.063.126.126.189.126s.189-.126.126-.189h.5c0,.063.063.189.126.189s.189-.063.189-.126c.063,0,.189.063.252.063l-.63,1.953-.126.693Zm.126.063.252-.63.441-2.016c.063,0,.189.063.252.063-.063.063,0,.189.063.252s.189,0,.252-.063c.063.063.189.063.252.126l-1.134,1.638-.252.63Zm2.834,1.89c-.063.063,0,.189.063.252-.063.063-.063.189-.126.252l-1.7-1.2-.63-.252c0-.063,0-.063.063-.126l.63.252,2.016.441c0,.063-.063.189-.063.252A.327.327,0,0,0,215.647,202.828Zm.441-1.512v.5c-.063,0-.189.063-.189.126s.063.189.126.189c0,.063-.063.189-.063.252l-1.953-.63-.693-.126v-.126l.693.063,2.079-.126-2.079-.126-.693.063v-.126l.693-.126,1.953-.63c0,.063.063.189.063.252-.063,0-.126.126-.126.189C215.9,201.253,215.962,201.316,216.088,201.316Zm-.441-1.008c.063.063.126.126.252.063,0,.063.063.189.063.252l-2.016.441-.63.252c0-.063,0-.063-.063-.126l.63-.252,1.7-1.134a.327.327,0,0,1,.126.252C215.647,200.119,215.584,200.245,215.647,200.308Zm-.063-.441-1.827.945-.567.441-.063-.063.567-.441,1.386-1.575-1.575,1.386-.441.567-.063-.063.441-.567.945-1.827c.063.063.189.063.252.126a.156.156,0,0,0,.063.252.192.192,0,0,0,.252,0l.189.189.189.189a.192.192,0,0,0,0,.252.379.379,0,0,0,.252.063C215.521,199.679,215.584,199.742,215.584,199.867Z" transform="translate(-209.6 -197.6)" fill="#6060b2"/>
  </g>
</svg>
