<svg id="message" xmlns="http://www.w3.org/2000/svg" width="22.576" height="22.575" viewBox="0 0 22.576 22.575">
  <path id="Path_7148" data-name="Path 7148" d="M17.946,22.575H4.63A4.635,4.635,0,0,1,0,17.946V4.63A4.635,4.635,0,0,1,4.63,0H17.946a4.635,4.635,0,0,1,4.63,4.63V17.946A4.635,4.635,0,0,1,17.946,22.575Z" fill="#6aa9ff"/>
  <path id="Path_7149" data-name="Path 7149" d="M262.658,0H256V22.575h6.658a4.635,4.635,0,0,0,4.63-4.63V4.63A4.635,4.635,0,0,0,262.658,0Z" transform="translate(-244.712)" fill="#2682ff"/>
  <path id="Path_7150" data-name="Path 7150" d="M93.5,106c-4.14,0-7.5,2.764-7.5,6.173a5.849,5.849,0,0,0,2.865,4.854l-.4,2.377,2.675-1.368a8.964,8.964,0,0,0,2.352.31c4.14,0,7.5-2.764,7.5-6.173S97.636,106,93.5,106Z" transform="translate(-82.208 -101.326)" fill="#fff"/>
  <path id="Path_7151" data-name="Path 7151" d="M256,106v12.346c4.14,0,7.5-2.764,7.5-6.173S260.14,106,256,106Z" transform="translate(-244.712 -101.326)" fill="#f2f2f2"/>
</svg>
