<svg xmlns="http://www.w3.org/2000/svg" width="18.835" height="22.576" viewBox="0 0 18.835 22.576">
  <g id="user" transform="translate(0)">
    <path id="Path_7137" data-name="Path 7137" d="M97.91,5.437a5.262,5.262,0,0,1-1.593,3.845,5.261,5.261,0,0,1-3.845,1.593h0a5.262,5.262,0,0,1-3.842-1.593,5.261,5.261,0,0,1-1.593-3.845,5.26,5.26,0,0,1,1.593-3.844A5.26,5.26,0,0,1,92.47,0h0a5.263,5.263,0,0,1,3.845,1.593A5.261,5.261,0,0,1,97.91,5.437Zm0,0" transform="translate(-83.197 0)" fill="#ffbb85"/>
    <path id="Path_7138" data-name="Path 7138" d="M18.835,255.108a3.748,3.748,0,0,1-1.114,2.836,4.008,4.008,0,0,1-2.869,1.047H3.982a4.005,4.005,0,0,1-2.869-1.047A3.747,3.747,0,0,1,0,255.108c0-.453.015-.9.045-1.333a13.347,13.347,0,0,1,.183-1.427,11.261,11.261,0,0,1,.351-1.434,7.112,7.112,0,0,1,.59-1.338,5.063,5.063,0,0,1,.889-1.159,3.921,3.921,0,0,1,1.277-.8,4.416,4.416,0,0,1,1.63-.295,1.652,1.652,0,0,1,.883.374c.269.176.579.375.921.594a5.259,5.259,0,0,0,1.191.525,4.747,4.747,0,0,0,1.312.233l.144,0a4.736,4.736,0,0,0,1.457-.235,5.259,5.259,0,0,0,1.191-.525c.346-.221.656-.421.921-.594a1.651,1.651,0,0,1,.884-.375,4.418,4.418,0,0,1,1.63.295,3.924,3.924,0,0,1,1.277.8,5.046,5.046,0,0,1,.889,1.159,7.087,7.087,0,0,1,.59,1.337,11.251,11.251,0,0,1,.351,1.435,13.473,13.473,0,0,1,.183,1.426c.03.43.045.878.046,1.333Zm0,0" transform="translate(0 -236.415)" fill="#6aa9ff"/>
    <path id="Path_7139" data-name="Path 7139" d="M210.3,10.875h0V0h0a5.263,5.263,0,0,1,3.845,1.593,5.261,5.261,0,0,1,1.593,3.844,5.262,5.262,0,0,1-1.593,3.845,5.261,5.261,0,0,1-3.845,1.593Zm0,0" transform="translate(-201.021)" fill="#f5a86c"/>
    <path id="Path_7140" data-name="Path 7140" d="M219.855,255.108a3.748,3.748,0,0,1-1.114,2.836,4.008,4.008,0,0,1-2.869,1.047h-5.58v-9.944l.144,0a4.736,4.736,0,0,0,1.457-.235,5.259,5.259,0,0,0,1.191-.525c.346-.221.656-.421.921-.594a1.651,1.651,0,0,1,.884-.375,4.418,4.418,0,0,1,1.63.295,3.924,3.924,0,0,1,1.277.8,5.045,5.045,0,0,1,.889,1.159,7.087,7.087,0,0,1,.59,1.337,11.256,11.256,0,0,1,.351,1.435,13.479,13.479,0,0,1,.183,1.426c.03.43.045.878.046,1.333Zm0,0" transform="translate(-201.02 -236.415)" fill="#2682ff"/>
  </g>
</svg>
