<svg xmlns="http://www.w3.org/2000/svg" width="34.585" height="34.585" viewBox="0 0 34.585 34.585">
  <g id="Page-1" transform="translate(0 0)" opacity="0.8">
    <g id="_006---AR-Phone-Projection" data-name="006---AR-Phone-Projection" transform="translate(0 0)">
      <path id="Shape" d="M53.211,47.07a1.187,1.187,0,0,1-1.222,1.153H49.753l-1.089-2.484H48.6l-1.683-.282a1.153,1.153,0,0,1-.9-.772l-.617-1.85a1.153,1.153,0,0,1,.576-1.4l.611-.306h.063L45.718,39h1.02a2.479,2.479,0,0,1,2.069,1.084l4.214,6.375a1.073,1.073,0,0,1,.19.611Z" transform="translate(-19.202 -16.52)" fill="#3f51b5"/>
      <path id="Shape-2" data-name="Shape" d="M53.3,46.459,49.09,40.084A2.479,2.479,0,0,0,47.02,39H46l.052.12a2.435,2.435,0,0,1,1.308.964l4.214,6.375a1.073,1.073,0,0,1,.19.611,1.187,1.187,0,0,1-1.222,1.153h1.729a1.187,1.187,0,0,0,1.222-1.153,1.073,1.073,0,0,0-.19-.611Z" transform="translate(-19.484 -16.52)" fill="#283593"/>
      <path id="Shape-3" data-name="Shape" d="M33.939,48.223H8L12.035,39H13.43l2.64,4.035h9.223L27.933,39H29.9l.928,2.127h-.063l-.611.306a1.153,1.153,0,0,0-.576,1.4l.617,1.85a1.153,1.153,0,0,0,.9.772l1.683.282h.063Z" transform="translate(-3.389 -16.52)" fill="#02a9f4"/>
      <path id="Shape-4" data-name="Shape" d="M9.07,39,5.035,48.223H2.222A1.187,1.187,0,0,1,1,47.07a1.073,1.073,0,0,1,.19-.611L5.4,40.084A2.479,2.479,0,0,1,7.473,39Z" transform="translate(-0.424 -16.52)" fill="#3f51b5"/>
      <path id="Shape-5" data-name="Shape" d="M34.433,53v2.306a1.156,1.156,0,0,1-1.153,1.153H2.153A1.156,1.156,0,0,1,1,55.306V53a1.187,1.187,0,0,0,1.222,1.153H33.211A1.187,1.187,0,0,0,34.433,53Z" transform="translate(-0.424 -22.45)" fill="#3f51b5"/>
      <path id="Shape-6" data-name="Shape" d="M55.66,54.153h-.507v1.153A1.156,1.156,0,0,1,54,56.459h1.729a1.156,1.156,0,0,0,1.153-1.153V53a1.187,1.187,0,0,1-1.222,1.153Z" transform="translate(-22.873 -22.45)" fill="#283593"/>
      <path id="Shape-7" data-name="Shape" d="M31.987,5.035V13.1L24.494,17.14,17,13.1V5.035L24.494,1Z" transform="translate(-7.201 -0.424)" fill="#ffdc00"/>
      <path id="Shape-8" data-name="Shape" d="M29.365,1l-.865.466,6.629,3.569V13.1L28.5,16.674l.865.466L36.858,13.1V5.035Z" transform="translate(-12.072 -0.424)" fill="#fec108"/>
      <g id="Group_12671" data-name="Group 12671" transform="translate(9.222 4.034)">
        <path id="Shape-9" data-name="Shape" d="M29.914,11.917,27.882,13.01l-2.032-1.1A.577.577,0,0,0,25.3,12.93l2,1.08v1.383a.576.576,0,1,0,1.153,0V14.01l2-1.076a.577.577,0,1,0-.546-1.016Z" transform="translate(-19.812 -9.052)" fill="#ff9801"/>
        <path id="Shape-10" data-name="Shape" d="M19.155,8.308,16.849,7.068A.577.577,0,0,0,16.3,8.084l2.306,1.239a.577.577,0,1,0,.546-1.016Z" transform="translate(-15.999 -6.999)" fill="#ff9801"/>
        <path id="Shape-11" data-name="Shape" d="M41.39,7.3a.576.576,0,0,0-.781-.235L38.3,8.308a.577.577,0,1,0,.546,1.016l2.306-1.239A.576.576,0,0,0,41.39,7.3Z" transform="translate(-25.318 -6.999)" fill="#ff9801"/>
        <path id="Shape-12" data-name="Shape" d="M29.576,23a.576.576,0,0,0-.576.576v2.882a.576.576,0,0,0,1.153,0V23.576A.576.576,0,0,0,29.576,23Z" transform="translate(-21.506 -13.777)" fill="#ff9801"/>
      </g>
      <path id="Shape-13" data-name="Shape" d="M30.085,31.287a3.045,3.045,0,0,0-2.549-1.34H25.608l6.578-10.06a.576.576,0,1,0-.965-.631L21.592,33.982h-8.6L3.365,19.256a.576.576,0,1,0-.965.631l6.578,10.06H7.05A3.045,3.045,0,0,0,4.5,31.289L.288,37.659A1.638,1.638,0,0,0,0,38.593V40.9a1.729,1.729,0,0,0,1.729,1.729H32.856A1.729,1.729,0,0,0,34.585,40.9V38.593a1.63,1.63,0,0,0-.288-.929ZM9.023,31.1h.708L12.2,34.873a.576.576,0,0,0,.482.261H21.9a.576.576,0,0,0,.482-.261L24.854,31.1h1.284l.548,1.254-.176.088a1.741,1.741,0,0,0-.865,2.1l.616,1.848a1.719,1.719,0,0,0,1.357,1.161l1.444.242.606,1.379H5.493ZM1.247,38.3,5.46,31.927A1.9,1.9,0,0,1,7.05,31.1h.715L4.234,39.17H1.8a.614.614,0,0,1-.646-.576.51.51,0,0,1,.095-.293Zm32.185,2.6a.576.576,0,0,1-.576.576H1.729a.576.576,0,0,1-.576-.576v-.7a1.845,1.845,0,0,0,.646.12H32.787a1.845,1.845,0,0,0,.646-.12Zm-.646-1.729h-1.86l-.938-2.139a.576.576,0,0,0-.528-.346l-1.653-.275a.576.576,0,0,1-.451-.386l-.617-1.852a.576.576,0,0,1,.288-.7l.5-.251a.576.576,0,0,0,.443-.8L27.4,31.1h.139a1.9,1.9,0,0,1,1.589.825l4.218,6.38a.5.5,0,0,1,.09.288.614.614,0,0,1-.646.576Z" transform="translate(0 -8.043)" fill="#fff"/>
      <path id="Shape-14" data-name="Shape" d="M16.3,13.189,23.8,17.224a.576.576,0,0,0,.546,0l7.494-4.035a.576.576,0,0,0,.3-.507V4.612a.576.576,0,0,0-.3-.507L24.343.069a.576.576,0,0,0-.546,0L16.3,4.1a.576.576,0,0,0-.3.507v8.07A.576.576,0,0,0,16.3,13.189Zm.85-8.231L24.07,1.231l6.917,3.726v7.378L24.07,16.062l-6.917-3.726Z" transform="translate(-6.777 -0.001)" fill="#fff"/>
    </g>
  </g>
</svg>
